<?xml version="1.0" standalone="no"?>
<!DOCTYPE svg PUBLIC "-//W3C//DTD SVG 20010904//EN"
 "http://www.w3.org/TR/2001/REC-SVG-20010904/DTD/svg10.dtd">
<svg version="1.0" xmlns="http://www.w3.org/2000/svg"
 width="314.000000pt" height="314.000000pt" viewBox="0 0 314.000000 314.000000"
 preserveAspectRatio="xMidYMid meet">
<metadata>
Created by potrace 1.14, written by Peter Selinger 2001-2017
</metadata>
<g transform="translate(0.000000,314.000000) scale(0.100000,-0.100000)"
fill="#000000" stroke="none">
<path d="M2 2022 l3 -57 120 -1 c66 -1 127 -2 135 -3 13 -1 15 -57 15 -448 l0
-448 57 -3 58 -3 2 453 3 453 555 1 c305 0 560 -1 566 -3 7 -3 11 -123 12
-391 0 -213 1 -415 1 -449 l1 -63 58 0 58 0 -3 45 c-2 25 -2 45 1 45 2 0 27
-16 56 -35 124 -83 289 -83 417 1 278 181 203 624 -117 696 -124 28 -227 7
-326 -68 l-31 -23 -1 157 c0 86 -1 167 -1 178 l-1 22 -820 0 -821 0 3 -56z
m2021 -342 c115 -60 169 -178 142 -313 -12 -58 -76 -136 -140 -170 -53 -28
-173 -30 -226 -4 -171 85 -206 309 -69 442 77 75 198 94 293 45z"/>
<path d="M2336 2072 c-3 -3 -6 -34 -6 -69 l0 -64 143 3 142 3 0 65 0 65 -137
2 c-75 0 -139 -1 -142 -5z"/>
<path d="M870 1818 c-146 -26 -276 -160 -299 -306 -30 -190 55 -350 226 -429
49 -23 71 -27 148 -27 76 0 99 4 147 26 75 35 153 109 188 178 34 69 40 94 41
172 0 79 -6 110 -35 173 -71 156 -243 245 -416 213z m164 -128 c61 -23 128
-88 153 -148 40 -95 11 -229 -63 -298 -64 -58 -90 -69 -179 -69 -70 0 -86 4
-127 28 -149 87 -182 291 -66 418 75 83 176 108 282 69z"/>
<path d="M2837 1818 c-51 -11 -120 -59 -147 -103 -40 -65 -36 -187 9 -239 29
-34 85 -63 175 -91 48 -16 98 -37 111 -47 68 -54 12 -168 -84 -168 -59 0 -121
42 -121 82 0 19 0 19 -72 22 -44 2 -48 0 -48 -21 0 -13 7 -40 16 -61 36 -88
128 -143 228 -137 77 4 105 15 156 61 59 53 73 86 72 166 0 106 -53 160 -203
207 -140 44 -177 85 -142 153 44 88 181 86 220 -3 17 -39 17 -39 74 -39 l56 0
-7 38 c-24 131 -153 211 -293 180z"/>
<path d="M2419 1806 c-1 -13 0 -690 0 -724 1 -22 4 -23 58 -20 l57 3 -1 345
c-1 190 -2 359 -2 377 -1 31 -1 31 -56 31 -32 -1 -55 -6 -56 -12z"/>
</g>
</svg>
